<?xml version="1.0" encoding="utf-8"?>
<!-- Generator: Adobe Illustrator 25.0.1, SVG Export Plug-In . SVG Version: 6.00 Build 0)  -->
<svg version="1.1" id="Layer_1" xmlns="http://www.w3.org/2000/svg" xmlns:xlink="http://www.w3.org/1999/xlink" x="0px" y="0px"
	 width="2560px" height="1440px" viewBox="0 0 2560 1440" style="enable-background:new 0 0 2560 1440;" xml:space="preserve">
<style type="text/css">
	.st0{fill:#FFFFFF;}
</style>
<g>
	<polygon class="st0" points="1327.2,303.3 1328.9,303.3 1329.8,300.8 	"/>
	<polygon class="st0" points="1338.2,318.5 1339,317.6 1339,316.8 	"/>
	<polygon class="st0" points="1330.6,289 1329.8,290.7 1330.6,290.7 	"/>
	<polygon class="st0" points="1330.6,303.3 1331.5,300.8 1328.9,303.3 	"/>
	<polygon class="st0" points="1329.8,306.7 1329.8,305.8 1328.9,306.7 	"/>
	<polygon class="st0" points="1331.5,306.7 1331.5,305.8 1330.6,306.7 	"/>
	<polygon class="st0" points="1333.1,305.8 1333.1,305 1332.3,305 	"/>
	<polygon class="st0" points="1337.4,320.2 1338.2,321 1338.2,319.3 1336.5,320.2 	"/>
	<polygon class="st0" points="1335.7,320.2 1336.5,320.2 1337.4,319.3 	"/>
	<polygon class="st0" points="1334,305.8 1334.8,305.8 1334,305 	"/>
	<polygon class="st0" points="1328.9,290.7 1329.8,290.7 1329.8,289 	"/>
	<polygon class="st0" points="1362.6,313.4 1361.8,312.6 1361.8,311.7 1361,313.4 	"/>
	<polygon class="st0" points="1300.3,298.3 1301.1,299.9 1301.1,296.6 1300.3,297.4 1299.4,298.3 1297.7,299.1 1299.4,301.6 	"/>
	<polygon class="st0" points="1364.3,311.7 1365.2,308.4 1362.6,310.1 1363.5,308.4 1361,310.9 1361.8,310.9 1362.6,310.9 	"/>
	<polygon class="st0" points="1361,312.6 1361.8,311.7 1361.8,310.9 	"/>
	<polygon class="st0" points="1366,280.5 1370.2,278 1367.7,274.6 1366.9,273 1366,271.3 1363.5,277.2 1366.9,274.6 	"/>
	<polygon class="st0" points="1324.7,304.2 1326.4,302.5 1324.7,301.6 1324.7,302.5 	"/>
	<polygon class="st0" points="1324.7,300.8 1324.7,301.6 1326.4,301.6 	"/>
	<polygon class="st0" points="1318.8,305.8 1318,305 1317.1,306.7 1318,306.7 1318.8,306.7 1319.7,305.8 1318.8,304.2 	"/>
	<polygon class="st0" points="1307,310.9 1304.5,309.2 1306.2,313.4 1307,312.6 1307.9,311.7 1309.5,309.2 1306.2,306.7 	"/>
	<polygon class="st0" points="1316.3,305 1312.9,304.2 1312.9,305 1312.9,305.8 1313.8,307.5 1317.1,306.7 1314.6,305.8 	"/>
	<polygon class="st0" points="1352.3,293.9 1354.2,294.9 1351.7,295.7 1355.9,297.4 1355.9,295.7 1355.9,294.9 1355.1,292.3 
		1352.9,292.8 1352.5,293.2 	"/>
	<polygon class="st0" points="1355.9,301.6 1352.5,299.1 1355.9,298.3 1351.7,296.6 1351.7,298.3 1351.7,299.1 1352.5,301.6 	"/>
	<polygon class="st0" points="1354.2,291.5 1351.7,291.5 1352.5,292.3 1351.4,293.1 1352.9,292.8 	"/>
	<polygon class="st0" points="1381.2,192 1382,192 1383.7,192 1381.2,189.5 1381.2,191.2 1378.7,189.5 1379.5,192 	"/>
	<polygon class="st0" points="1348.3,295.7 1349.2,295.7 1351.7,295.7 1352.3,293.9 1351.1,293.3 1350,294 1350,291.5 1349.2,292.3 
		1347.5,289.8 1347.5,290.7 1347.5,291.5 1346.6,293.2 1349.2,294 1347.5,295.7 	"/>
	<polygon class="st0" points="1350,304.2 1350.8,305 1352.5,307.5 1355.9,305 1351.7,304.2 1354.2,302.5 1349.2,303.3 	"/>
	<polygon class="st0" points="1350.8,286.4 1351.7,287.3 1352.5,288.1 1353.4,289.8 1355.9,288.1 1352.5,287.3 1354.2,286.4 	"/>
	<polygon class="st0" points="1352.5,313.4 1352.5,314.3 1354.2,314.3 	"/>
	<polygon class="st0" points="1353.4,319.3 1354.2,319.3 1354.2,317.6 	"/>
	<polygon class="st0" points="1339,317.6 1338.2,319.3 1339.9,319.3 1339,318.5 	"/>
	<polygon class="st0" points="1352.5,314.3 1352.5,315.1 1354.2,315.1 	"/>
	<polygon class="st0" points="1355.1,319.3 1355.1,317.6 1354.2,319.3 	"/>
	<polygon class="st0" points="1343.3,313.4 1344.1,313.4 1344.9,313.4 1345.8,311.7 	"/>
	<polygon class="st0" points="1344.9,299.1 1344.1,301.6 1343.3,304.2 1340.7,309.2 1348.3,312.6 1344.9,305 1350.3,307.3 
		1350.7,307.4 	"/>
	<polygon class="st0" points="1346.6,314.3 1347.5,312.6 1344.9,313.4 	"/>
	<polygon class="st0" points="1337.4,303.3 1335.7,305.8 1337.4,305 	"/>
	<polygon class="st0" points="1343.3,316 1342.4,316 1342.4,318.5 1343.3,317.6 1344.1,319.3 1344.9,316.8 1344.1,316 	"/>
	<polygon class="st0" points="1349.2,309.2 1351.7,307.5 1350.7,307.4 1350.8,307.5 1350.3,307.3 1346.6,306.7 1347.5,308.4 
		1348.3,309.2 1350,311.7 1353.4,310.9 	"/>
	<polygon class="st0" points="1346.6,288.1 1347.5,289.8 1349.2,290.7 	"/>
	<polygon class="st0" points="1350.8,293.2 1351.1,293.3 1351.4,293.1 	"/>
	<polygon class="st0" points="1347.5,286.4 1347.5,287.3 1348.3,289 1350.8,288.1 1348.3,287.3 1350,286.4 1348.3,286.4 
		1348.3,284.8 1345.8,286.4 1346.6,288.1 1347.5,285.6 	"/>
	<polygon class="st0" points="1350,290.7 1350.8,291.5 1351.7,291.5 1352.5,289.8 	"/>
	<path class="st0" d="M1246.3,313l0.8-1.3l0.6,1.2l0.2-0.4c0-0.9-0.3-1.6-0.8-2.1l-0.9,0.4l-1.7,0.8l0.7,2.2l0.9-1.4V313z"/>
	<polygon class="st0" points="1247.2,319.3 1243.8,316 1243.8,316.8 1243.8,317.6 1244.6,317.6 1243.5,318.4 1242.9,320.2 
		1246.2,321.8 1246.3,321.8 1244.6,318.5 	"/>
	<polygon class="st0" points="1242.9,317.6 1243.8,316.8 1241.3,316.8 1241.3,317.6 1241.3,318.5 1242.1,319.3 1243.5,318.4 
		1243.8,317.6 	"/>
	<polygon class="st0" points="1248,314.3 1247.2,316.8 1249.7,315.1 1249.4,314.6 1248,315.1 	"/>
	<polygon class="st0" points="1246.3,315.1 1246.3,313 1245.5,314.3 1245.4,314 1244.6,315.1 1244.6,312.6 1242.9,316 1243.8,316 
		1246.3,316 	"/>
	<polygon class="st0" points="1248,318.5 1248.8,317.6 1247.2,317.6 1247.2,318.5 1248,319.3 1249.7,318.5 	"/>
	<polygon class="st0" points="1359.3,316.8 1359.3,315.1 1358.4,316.8 	"/>
	<polygon class="st0" points="1255.4,308.5 1254.7,305.8 1253.9,306.7 1253.9,307.5 1255.2,308.8 	"/>
	<polygon class="st0" points="1253.9,307.5 1251.4,309.2 1253.1,310.3 1253.9,309.8 	"/>
	<polygon class="st0" points="1256.4,310.9 1256.4,307.5 1255.6,308.4 1255.4,308.5 1255.6,309.2 	"/>
	<polygon class="st0" points="1250.9,310.5 1251.4,310.6 1251.4,310.1 	"/>
	<path class="st0" d="M1250.9,310.5l-1.3-0.4l1.7-0.8l-3.4-0.8l-2.5,0.8c0.8,0.4,1.3,0.8,1.7,1.2l0.8-0.4h0.8l-0.7,2.6l0.7,0.3v-0.4
		l1.7-0.8h-0.8L1250.9,310.5z"/>
	<path class="st0" d="M1250.5,314.3l0.5,0.5c0-0.4-0.1-0.9-0.2-1.4h-1.1L1250.5,314.3z"/>
	<polygon class="st0" points="1247.8,312.9 1246.3,315.1 1248,314.3 1248,313.4 	"/>
	<polygon class="st0" points="1251.4,315.1 1252.2,316.8 1253.7,315.8 1253.1,315.1 1252.5,314.5 1252.2,314.5 1252.2,316 	"/>
	<polygon class="st0" points="1320.5,311.7 1320.5,311.7 1320.5,311.7 	"/>
	<path class="st0" d="M1069.3,517.4c-5.1-5.9-11-9.3-19.4-11.8c-8.4-2.5-18.5-3.4-32-3.4c-13.5,0-23.6,0.8-32,3.4
		c-8.4,2.5-15.2,5.9-19.4,11.8c-4.2,5.9-7.6,13.5-9.3,22.8c-1.7,10.1-2.5,22.8-2.5,37.9h127.3c0-16-0.8-28.7-2.5-37.9
		C1077.7,530.9,1074.3,523.3,1069.3,517.4z"/>
	<path class="st0" d="M1227.8,321.9l-1.1,0.6c-0.1,0.2-0.2,0.5-0.4,0.8l0,0.1c0.6-0.6,0.7-0.7,1.5-0.7c0,0,0.8,0.8,0.8,1.7l0,0
		l0.4-1.3l-0.4-1.3H1227.8z"/>
	<polygon class="st0" points="1247.5,326.6 1247.2,326.9 1247.6,326.7 	"/>
	<polygon class="st0" points="1249.7,313.4 1248.8,313 1248.8,313.4 	"/>
	<polygon class="st0" points="1250.5,314.3 1248.8,313.4 1249.4,314.6 	"/>
	<polygon class="st0" points="1242.1,323.5 1243.8,325.2 1243.8,323.5 	"/>
	<path class="st0" d="M1228.6,321.9L1228.6,321.9c0.3,0.3,0.5,0.4,0.7,0.6l0.2-0.6H1228.6z"/>
	<polygon class="st0" points="1380.3,293.2 1382.9,292.3 1382,291.5 	"/>
	<path class="st0" d="M1369.4,310.9c0,0.8-0.8,0.8-0.8,1.7c-0.8,0-0.8,0.8-0.8,0.8l0.8,0.8l1.7-2.5v-0.8H1369.4z"/>
	<polygon class="st0" points="1363.5,313.4 1365.2,313.4 1363.5,312.6 	"/>
	<polygon class="st0" points="1326.4,305.8 1324.7,305.8 1325.6,305 1323,305 1323,305.8 1323.9,306.7 	"/>
	<path class="st0" d="M1253.9,310.1L1253.9,310.1c-0.2,0.2-0.3,0.3-0.5,0.5l0.5,0.3V310.1z"/>
	<polygon class="st0" points="1323,306.7 1322.2,308.4 1323,308.4 	"/>
	<path class="st0" d="M1363.5,314.3v1.7l0.8-0.8c0-0.5,0-0.8,0-0.8l0.3-0.3l-1.1-0.6V314.3z"/>
	<polygon class="st0" points="1387.9,270.4 1389.6,270.4 1387.9,269.6 	"/>
	<path class="st0" d="M1387.9,269.6h0.8l0.8,0.4c0-0.1,0-0.3,0-0.4c0-0.4,0-0.8,0-1.3l-2.5,1.3H1387.9z"/>
	<path class="st0" d="M1333.3,141.9c-0.1,0-0.3,0-0.4-0.1l0.2,0.4L1333.3,141.9z"/>
	<polygon class="st0" points="1387.9,271.3 1387.9,273 1389.6,271.3 1387.9,270.4 	"/>
	<polygon class="st0" points="1322.2,307.8 1321.9,308.4 1322.2,308.4 	"/>
	<polygon class="st0" points="1270.8,319.3 1272.1,320 1271.6,318.5 1270.6,318.8 1271.6,319.3 	"/>
	<path class="st0" d="M1310.4,310.1l-0.8,0.8l-1.7,2.5l1.3,0.5c0.3-0.3,0.4-0.8,0.4-1.4l1.1-1.1l-0.2-0.6l0.6,0.3l0.3-0.3l1.7,0.8
		h0.3l-2-3.4L1310.4,310.1z"/>
	<polygon class="st0" points="1255.2,308.8 1254.7,309.2 1253.9,309.8 1253.9,310.1 1254.7,311.7 1255.6,309.2 	"/>
	<path class="st0" d="M1258.1,314.3h0.8c0-0.8,0.8-0.8,0.8-0.8h0.8l0.8-2.5l-2.5,1.7l0.8-1.7l-2.5,2.5h0.8h0.8
		c-0.6,0.3-1.1,0.6-1.7,0.8c-0.1,0-0.1,0.1-0.2,0.1C1257.4,314.3,1257.7,314.3,1258.1,314.3z"/>
	<polygon class="st0" points="1272.1,320 1272.2,320.3 1272.4,320.2 	"/>
	<polygon class="st0" points="1269.9,318.5 1269.9,319 1270.6,318.8 	"/>
	<path class="st0" d="M1283.4,316.8l1.7-3.4l-3.4,0.8l1.7-1.7l-2.5,1.3v0.4c0,0.3,0,0.6,0,0.8l0.8,0.8L1283.4,316.8z"/>
	<polygon class="st0" points="1302.8,310.9 1303.6,310.1 1303.6,309.2 1298.6,310.1 1301.9,310.9 1297.7,312.6 1299.1,313.1 
		1299.4,312.6 1300.3,313.4 1300.5,313.7 1301.9,314.3 	"/>
	<path class="st0" d="M1280.9,318.5c0,0.3,0.2,0.5,0.4,0.7l-0.4-1.6C1280.9,317.6,1280,318.5,1280.9,318.5z"/>
	<path class="st0" d="M1280.9,317.6l1.7,0.8l-1.7-3.4c0,0.6,0,1.1,0,1.7V317.6z"/>
	<polygon class="st0" points="1339,287.3 1337.4,287.3 1338.2,286.4 1336.5,285.6 1336.5,286.4 1336.5,287.3 1337.4,288.1 	"/>
	<polygon class="st0" points="1309.5,293.2 1308.7,294.9 1311.2,296.6 	"/>
	<polygon class="st0" points="1285.9,311.7 1285.9,309.2 1284.2,310.9 1284.2,309.2 1282.6,311.7 1284.2,311.7 	"/>
	<polygon class="st0" points="1312.9,285.6 1312.9,283.9 1312.9,283.1 1312.9,282.2 1309.5,283.1 1311.2,283.1 1309.5,285.6 	"/>
	<polygon class="st0" points="1307.9,300.8 1307.9,299.9 1307.9,299.1 1306.2,299.1 	"/>
	<polygon class="st0" points="1310.4,291.5 1309.5,293.2 1312.1,294.9 	"/>
	<polygon class="st0" points="1301.1,302.5 1298.6,307.5 1300.3,307.5 1301.9,307.5 1305.3,307.5 1303.6,302.5 1301.1,305.8 	"/>
	<polygon class="st0" points="1296.9,285.6 1297.7,287.3 1298.6,284.8 1300.3,284.8 1298.6,282.2 1300.3,283.1 1297.7,280.5 
		1297.7,281.4 1297.7,282.2 1296.9,283.9 1295.2,284.8 1296,287.3 	"/>
	<polygon class="st0" points="1308.7,305.8 1309.5,305 1311.2,302.5 1307,300.8 1308.7,305 1305.3,303.3 1307.9,307.5 	"/>
	<polygon class="st0" points="1298.6,287.3 1297.7,290.7 1300.3,289 1299.4,290.7 1301.9,288.1 1301.1,288.1 1300.3,288.1 	"/>
	<polygon class="st0" points="1315.4,286.4 1315.4,289.8 1317.1,289 	"/>
	<polygon class="st0" points="1306.2,297.4 1307.9,299.1 1307.9,297.4 	"/>
	<polygon class="st0" points="1320.5,301.6 1318.8,299.9 1320.5,302.5 1322.2,300.8 1320.5,298.3 	"/>
	<polygon class="st0" points="1318.8,297.4 1318,297.4 1317.1,298.3 1318,300.8 1318.8,299.1 1319.7,299.9 1319.7,298.3 
		1319.7,297.4 	"/>
	<polygon class="st0" points="1324.7,297.4 1322.2,299.9 1328.1,298.3 1326.4,297.4 1325.6,296.6 1323,294.9 1319.7,298.3 	"/>
	<polygon class="st0" points="1313.8,287.3 1313.8,290.7 1315.4,289.8 	"/>
	<polygon class="st0" points="1323.9,300.8 1322.2,299.9 1322.2,300.8 	"/>
	<polygon class="st0" points="1322.2,303.3 1323.9,303.3 1322.2,300.8 1322.2,301.6 	"/>
	<polygon class="st0" points="1318.8,279.7 1316.3,278.9 1317.1,279.7 1318,279.7 	"/>
	<polygon class="st0" points="1319.7,289.8 1319.7,290.7 1319.7,291.5 1322.2,292.3 	"/>
	<polygon class="st0" points="1316.3,281.4 1317.1,279.7 1315.4,279.7 	"/>
	<polygon class="st0" points="1321.3,294 1319.7,291.5 1318,293.2 	"/>
	<polygon class="st0" points="1234.5,306.7 1234.5,307.5 1234.8,307 	"/>
	<polygon class="st0" points="1234.8,307 1235.1,307.3 1237,306.7 1236.2,305.8 1235.4,305 1233.7,304.2 1232,305.8 1235.4,305.8 	
		"/>
	<polygon class="st0" points="1234.5,309.2 1232.8,308.4 1233.7,310.9 1235.4,310.1 1236.2,308.4 1235.1,307.3 1234.5,307.5 	"/>
	<polygon class="st0" points="1324.7,291.5 1326.4,290.7 1324.7,288.1 1323.9,291.5 1323,289.8 1323,293.2 1323.9,292.3 	"/>
	<polygon class="st0" points="1237.9,319.3 1238.7,318.5 1241.3,316.8 1239.6,314.3 1238.7,317.6 1237.9,316 	"/>
	<polygon class="st0" points="1235.4,312.6 1237,313.4 1237.9,311.7 1235.4,311.7 1236.2,310.1 1233.7,310.9 1234.5,311.7 	"/>
	<polygon class="st0" points="1214.3,312.6 1216,313.4 1217.7,311.7 1215.1,312.6 1216,310.9 1212.6,312.6 1213.4,312.6 	"/>
	<path class="st0" d="M1511,524.2c-5.9-5.9-12.6-10.1-21.9-12.6c-8.4-2.5-20.2-3.4-33.7-3.4c-13.5,0-24.4,0.8-33.7,3.4
		c-9.3,2.5-16.9,6.7-21.9,12.6c-5.1,5.9-8.4,14.3-11,26.1c-2.5,11.8-3.4,27-3.4,45.5v52.3c0,16.9,0.8,30.3,3.4,40.5
		c1.7,10.1,5.9,18.5,11,24.4c5.9,6.7,12.6,10.1,21.9,12.6c8.4,2.5,20.2,3.4,33.7,3.4c14.3,0,25.3-0.8,34.6-3.4
		c9.3-2.5,16-6.7,21.1-12.6c5.9-5.9,9.3-15.2,11-27c1.7-11.8,2.5-27,2.5-45.5v-43c0-19.4-0.8-34.6-2.5-46.4
		C1520.3,539.3,1516.1,530.1,1511,524.2z"/>
	<path class="st0" d="M1907.2,652.3c-7.6-6.7-24.4-10.1-50.6-10.1h-10.1c-22.8,0-37.9,3.4-46.4,9.3c-7.6,5.9-11.8,16-11.8,31.2v5.1
		c0,14.3,4.2,24.4,11.8,30.3c7.6,5.9,21.9,9.3,42.1,9.3h76.7v-42.1C1919,670,1915.6,659,1907.2,652.3z"/>
	<polygon class="st0" points="1240.4,307.5 1241.3,310.9 1242.1,310.1 1242.9,309.2 1244.6,307.5 1242.1,305.8 1242.1,307.5 
		1242.1,309.2 	"/>
	<polygon class="st0" points="1221.9,283.1 1223.6,283.9 1221,281.4 1221,282.2 1221,283.1 1220.2,284.8 1222.7,285.6 	"/>
	<polygon class="st0" points="1244.6,301.6 1246.3,300.8 1245.5,298.3 1244.6,300.8 1243.8,299.1 1242.9,301.6 1243.8,301.6 	"/>
	<polygon class="st0" points="1249.7,305 1248,306.7 1249.7,308.4 	"/>
	<polygon class="st0" points="1239.6,319.3 1239.6,320.2 1239.6,321.9 1242.1,321.9 1240.4,320.2 1242.1,320.2 1239.6,318.5 	"/>
	<polygon class="st0" points="1242.1,315.1 1240.4,313.4 1240.4,315.1 	"/>
	<polygon class="st0" points="1250.5,304.2 1249.7,305 1251.4,306.7 	"/>
	<polygon class="st0" points="1240.4,304.2 1239.6,305.8 1242.1,307.5 	"/>
	<polygon class="st0" points="1359.3,315.1 1359.3,314.3 1359.3,313.4 1357.6,315.1 	"/>
	<polygon class="st0" points="1241.3,302.5 1240.4,304.2 1242.9,305.8 	"/>
	<polygon class="st0" points="1259,305.8 1260.6,306.7 1258.1,304.2 1258.1,305 1258.1,305.8 1257.3,307.5 1259.8,308.4 	"/>
	<polygon class="st0" points="1240.4,311.7 1240.4,312.6 1240.4,313.4 1242.1,313.4 	"/>
	<polygon class="st0" points="1344.9,298.3 1345.8,299.1 1347.5,301.6 1351.7,299.9 1347.5,298.3 1350,296.6 1344.5,296.6 
		1344.2,296.8 	"/>
	<polygon class="st0" points="1341.6,279.7 1340.7,280.5 1342.4,281.4 	"/>
	<polygon class="st0" points="1344.1,291.5 1343.3,291.5 1343.3,293.2 	"/>
	<polygon class="st0" points="1340.7,291.5 1342.4,293.2 1343.3,291.5 1342.4,291.5 	"/>
	<polygon class="st0" points="1349.2,279.7 1350,276.3 1347.5,278 1347.5,276.3 1344.9,279.7 1345.8,279.7 1346.6,279.7 	"/>
	<polygon class="st0" points="1344.9,282.2 1346.6,283.1 1348.3,280.5 1344.9,281.4 1345.8,279.7 1343.3,280.5 1344.1,281.4 	"/>
	<polygon class="st0" points="1340.7,280.5 1339.9,281.4 1341.6,282.2 	"/>
	<polygon class="st0" points="1339.9,283.1 1339.9,283.9 1341.6,283.9 	"/>
	<polygon class="st0" points="1350,283.1 1349.2,283.9 1350.8,284.8 1352.5,282.2 1351.7,282.2 1351.7,283.1 1350,283.9 	"/>
	<polygon class="st0" points="1339,283.1 1338.2,283.9 1339.3,283.4 	"/>
	<polygon class="st0" points="1339.9,282.2 1339.9,283.1 1341.6,283.1 	"/>
	<polygon class="st0" points="1357.6,277.2 1358.4,277.2 1359.3,277.2 1356.7,274.6 1356.7,276.3 1355.1,274.6 1355.9,277.2 	"/>
	<polygon class="st0" points="1360.1,301.6 1358.4,300.8 1358.4,301.6 	"/>
	<polygon class="st0" points="1359.3,299.1 1359,299.1 1359.1,299.2 	"/>
	<polygon class="st0" points="1357.6,299.1 1358.4,298.3 1358.4,297.4 	"/>
	<polygon class="st0" points="1358.4,307.5 1359.3,305.8 1355.9,306.7 	"/>
	<polygon class="st0" points="1357.6,309.2 1358.4,307.5 1355.1,308.4 	"/>
	<polygon class="st0" points="1359,299.1 1358.4,298.3 1357.6,299.9 1358.4,299.5 1358.4,299.1 	"/>
	<polygon class="st0" points="1351.7,277.2 1351.7,280.5 1353.4,279.7 	"/>
	<polygon class="st0" points="1338.2,283.9 1337.4,284.8 1339,285.6 	"/>
	<polygon class="st0" points="1352.5,283.9 1351.7,285.6 1355.1,286.4 1353.4,283.9 1355.1,284.8 1352.5,282.2 1352.5,283.1 	"/>
	<polygon class="st0" points="1358.4,299.5 1358.4,299.9 1358.4,300.8 1360.1,300.8 1359.1,299.2 	"/>
	<path class="st0" d="M-23.3-210.4V1599h2606.6V-210.4H-23.3z M767.5,807.4H651.2V568.8c0-10.1-0.8-18.5-2.5-26.1
		c-0.8-6.7-4.2-12.6-8.4-17.7c-4.2-4.2-11-7.6-19.4-10.1c-8.4-2.5-19.4-3.4-33.7-3.4c-13.5,0-25.3,0.8-33.7,3.4
		c-8.4,1.7-15.2,5.1-19.4,10.1c-4.2,4.2-6.7,10.1-8.4,17.7c-1.7,7.6-2.5,16-2.5,26.1v239.4H406.7v-247c0-21.1,2.5-38.8,6.7-54.8
		c-25.3,0-47.2-16-55.6-39.6l-16.9-48.1h254.6c28.7,0,53.1,2.5,74.2,6.7c22.8,5.1,41.3,13.5,55.6,24.4c14.3,11,25.3,25.3,32,43.8
		c6.7,17.7,10.1,40.5,10.1,66.6V807.4z M1189.8,562.1v15.2c0,16-0.8,28.7-2.5,38.8c-2.5,10.1-5.9,18.5-11,24.4
		c-5.1,5.9-11.8,10.1-20.2,12.6c-7.6,2.5-18.5,3.4-30.3,3.4h-172c0.8,12.6,1.7,22.8,4.2,30.3c2.5,7.6,5.9,13.5,11.8,18.5
		c5.1,5.1,12.6,8.4,21.9,10.1c9.3,1.7,21.1,2.5,35.4,2.5h64.9c22.8,0,48.9,0,77.6-0.8l-16.9,89.4c-24.4,0.8-47.2,1.7-68.3,1.7h-68.3
		c-34.6,0-63.2-3.4-86-10.1c-22.8-7.6-41.3-17.7-54.8-32c-13.5-13.5-22.8-32-28.7-53.1c-5.9-21.9-8.4-47.2-8.4-75.9v-39.6
		c0-30.3,3.4-56.5,9.3-79.2c0.8-4.2,2.5-8.4,4.2-12.6c-26.1,0-49.7-16.9-58.2-41.3l-16-46.4h242.8c61.5,0,105.4,12.6,131.5,37.9
		C1178,481.2,1190.7,516.6,1189.8,562.1z M1208.4,313.4l-0.8-0.8l-0.8,0.8h-1.7l0.8-1.7l-0.8-0.8c-0.8-0.8-0.8-1.7-2.5-0.8l-0.8-1.7
		c0-0.8,0-0.8,0-0.8s0-0.8,0.8-0.8c0.8-0.8,2.5,0,2.5,0l0.8,0.8c0-0.8,0.8-0.8,0.8-1.7h1.7l0.8-4.2l-0.8-2.5c0,0.8,0,0.8,0,0.8v0.8
		c0,0.8,0,0.8,0,0.8c0,1.7,0,2.5-0.8,3.4c-0.8,0.8-1.7,0.8-3.4,0l-0.8-4.2l-1.7,0.8l-0.8-0.8v0.8c0,0.8,0.8,1.7,0.8,2.5l0.8,0.8
		c-0.8,0-1.7,0.8-1.7,0.8c-0.8,0-0.8,0.8-1.7,0.8c0,0.8-0.8,0.8-0.8,0.8l0.7-2c-0.3,0.4-0.9,0.5-1.5,1.1h-1.7l-2.5-5.1
		c0,0,0-0.8,0-1.7c-0.8,0-0.8,0-0.8,0c-0.8,0-0.8,0.8-0.8,0.8c-0.8-0.8-0.8-0.8-1.7-1.7c-1.7-1.7-3.4-2.5-5.9-0.8v-0.8l3.4-3.4
		l-3.4,0.8l1.7-0.8c-0.8,0-0.8,0-0.8,0s-0.8,0-1.7,0s-0.8,0-1.7,0c0,0,0,0,0-0.8c0-0.8,0.8-0.8,1.7-1.7h0.8l-3.4-3.4l0.8-0.8
		l-1.7-0.8l0.8-1.7c-1.7-0.8-2.5-1.7-2.5-2.5c0-0.8,0-1.7,0.8-2.5l-4.2-2.5l-0.8-4.2l0.8-1.7l-0.8-0.8c-0.8,0-0.8-0.8-1.7-1.7
		l-0.8-0.8l-0.8-0.8c-0.8-0.8-0.8-1.7-0.8-2.5c0-0.8,0.8-0.8,2.5-1.7h-0.8c-0.8,0-0.8-0.8-0.8-1.7c0-0.8,0-1.7-1.7-1.7
		c-1.7-1.7-1.7-2.5-1.7-4.2c0-0.8,0-0.8,0-1.7l-1.7-0.8c0-0.8,0.8-0.8,0.8-0.8c0-0.8,0.8-0.8,0.8-0.8l0.8-0.8c0,0,0-0.8,0-1.7
		c0-0.8-0.8-0.8-0.8-0.8l-0.8,1.7c-0.8,0-0.8-0.8-0.8-1.7c-0.8-0.8-0.8-1.7-0.8-1.7s-0.8,0-1.7,0l3.4-9.3l-1.7-0.8l2.5-1.7l-3.4,0.8
		c0-0.8,0.8-0.8,0.8-1.7s0.8-1.7,1.7-2.5c0.8,0,0.8-0.8,0.8-1.7c-0.8-0.8-0.8-1.7-1.7-1.7l1.7-1.7l-2.5-1.7l0.8-0.8l-1.7-0.8
		l1.7-5.1v-0.8c0-0.8,0.8-0.8,1.7-0.8l0.8-0.8c0-0.8,0-0.8-0.8-1.7c-1.7-2.5-1.7-3.4,0-5.9c1.7-1.7,2.5-2.5,3.4-4.2
		c0-0.8,0.8-0.8,0.8-1.7l-2.5-0.8l1.7-1.7c0-3.4,0-5.9,1.7-8.4c0.8,0.8,1.7,0.8,2.5,0.8c0.8-0.8,0.8-0.8,0.8-0.8l-0.8-5.9h2.5
		l-2.5-0.8l3.4-2.5l-2.5-0.8v-0.8h2.5v-0.8h-4.2c3.4-1.7,3.4-2.5,1.7-4.2c1.7-0.8,1.7-0.8,4.2,0c0-0.8,0-0.8,0-0.8
		c-0.8-0.8-1.7-0.8-2.5-1.7c0-0.8-0.8-0.8-0.8-0.8v-0.8c0.8,0,1.7-0.8,2.5-0.8c0,0.8,0,0.8,0,0.8c0.8,0,0.8,0,1.7,0l3.4-0.8v-2.5
		l0.8,1.7l-0.8-2.5l-0.8,0.8l-0.8,0.8c0-0.8-0.8-0.8-0.8-0.8l-0.8,0.8c0.8-3.4,3.4-5.1,6.7-5.9l-1.7-0.8c0-1.7,0.8-1.7,1.7-2.5
		l0.8-0.8c0-0.8,0-0.8-0.8-1.7c0.8,0,1.7,0,2.5-0.8c0.8-1.7,0.8-3.4,0-5.1c0-0.8,0-0.8,0-0.8l2.5,1.7V149c0-0.8,0.8-0.8,0.8-0.8
		c0.8-0.8,0.8-1.7,1.7-1.7s0.8,0.8,1.7,1.7c0,0,0,0,0.8,0v-0.8c0-0.8-0.8-0.8-0.8-1.7v-0.8h0.8c0.8,0,0.8-0.8,1.7-0.8
		c0.8,0,0.8-0.8,1.7-0.8c0-0.8,0.8-0.8,0.8-0.8v0.8l0.8-0.8c0.8-0.8,0.8-1.7,1.7-2.5c0.8,0,0.8-0.8,0.8-0.8s0.8-0.8,0.8-1.7
		c0.8-1.7,0.8-1.7,2.5-1.7c0.8,0,1.7-0.8,2.5-0.8h0.8c0.8,0,0.8-0.8,1.7-0.8v-1.7h2.5v-1.7l0.8-0.8v0.8l11-3.4
		c0.8,0.8,2.5,0.8,3.4,0.8c-0.8,0-0.8-0.8-1.7-1.7v-0.8l3.4-0.8v1.7h3.4l-1.7-3.4c3.4,0.8,5.1,0,5.9-0.8h0.8c3.4,0,5.9-0.8,7.6-2.5
		c0,0,0.8-0.8,1.7-0.8h0.8c0,0.8,0,0.8,0,0.8c0,0.8,0.8,1.7,0.8,1.7c0.8,0,0.8,0,0.8,0c0.8,0,0.8,0,0.8,0l0.8,0.8l1.7-2.5l1.7,0.8
		l0.8-1.7c0.8,0,0.8,0,1.7,0c0.8,0.8,2.5,0.8,3.4,0.8h0.8c0.8,0,2.5,0,5.1,3.4h0.8c0-0.8-0.8-0.8-0.8-1.7c-0.8-0.8-0.8-0.8-0.8-1.7
		c0,0,0-0.8,0.8-0.8l6.7,4.2l1.7-1.7l1.7,1.7l1.6-3.2l-0.3-0.3l-2.2-0.7l0.8-0.8l1.3,1.6l0.4,0.1l-0.1,0.2l7.7,9.1h2.5l0.8,3.4
		l0.8-0.8l4.2,1.7l-0.8-0.8c1.7-0.8,1.7-0.8,2.5-0.8c0,0,0.8,0.8,0.8,1.7l1.7,0.8c0.8,0,0.8,0,0.8,0c0.8,0,0.8-0.8,1.7-0.8
		s0.8,0,1.7,0.8l-0.8,0.8c3.4-0.8,6.7-1.7,9.3,1.7c0.8,0,0.8,0,1.7,0c0,0,0.8,0,0.8,0.8l1.7-0.8l-0.8,1.7c0.8,0,0.8,0,1.7,0h0.8
		c0.8,0,0.8,0,0.8,0h0.8h0.8c2.7,2.7,6.1,3.3,9.9,3.8l-0.6-1.3h1.7l-0.8-0.8l2.5,0.8h-0.8h-0.8l-0.7,1.3c0.8,0.1,1.5,0.2,2.4,0.3
		c0.6,0,1.1,0,1.7,0c0,0.8-0.8,0.8-0.8,0.8h-0.8c0.8,0.8,0.8,0.8,0.8,0.8c0.8,0.8,0.8,0.8,1.7,0.8c0.8,0,0.8,0,0.8,0l0.8-0.8
		c0,0.8,0.8,0.8,0.8,0.8c0.8,0,1.7,0,2.5,0.8c0,0.8,0.8,0.8,0.8,1.7v0.8h-0.8l-0.8-0.8v1.7h0.8c0.8,0,1.7,0,2.5,0
		c0.8,0,1.7,0.8,2.5,1.7c0.8,0,0.8,0.8,0.8,0.8v0.8h0.8c0.8,0,0.8,0,0.8-0.8c0-0.8,0-0.8,0-1.7V149h0.8v0.8c0,0.8,0.8,1.7,1.7,2.5
		c0.8,0.8,1.7,0.8,3.4,0l-0.8,0.8l-0.8,0.8l3.4,3.4l-1.7,0.8c0.8,0,0.8,0,1.7,0c0.8,0,0.8,0.8,0.8,1.7l0.8,0.8
		c0.8,0.8,1.7,0.8,2.5,0.8c0,0.8,0,0.8,0,1.7c0,0.8,0,1.7,0,1.7s0.8,0,1.7,0l1.7,2.5l-1.7,1.7l3.4-1.7l1.7,0.8v0.8
		c-0.8,0-0.8,0-0.8,0c-0.8,0.8-0.8,0.8-0.8,0.8c0.8,0,0.8,0,0.8,0c1.7,0,2.5,0.8,3.4,2.5c0,0,0.8,0.8,0.8,1.7
		c0.8,1.7,1.7,2.5,1.7,4.2c0.8,0.8,0.8,0.8,0.8,0.8c0.8,0,2.5,0,3.4-0.8l1.7,5.9l1.7-1.7l2.5,0.8l-2.5,1.7h0.8
		c1.7,0,2.5-0.8,3.4,1.7l-2.5,0.8c0.8,0,0.8,0,0.8,0c2.5,0.8,5.1,1.7,4.2,5.1v0.8l-1.7,1.7l0.8,0.8l0.8-0.8c0.8,0.8,0.8,0.8,1.7,1.7
		l-0.8,0.8c0,0,0,0,0.8,0.8c0.8,0.8,1.7,2.5,2.5,3.4l0.8,0.8v0.8c0,0.8,0,0.8,0,0.8v0.8c0,0.8,0,1.7,0,2.5c0,2.5,0.8,4.2,0.8,5.9
		c0,0,0,0.8,0,1.7h1.7c-0.8,0.8-0.8,0.8-0.8,0.8c-0.8,0.8-0.8,0.8-1.7,1.7v0.8v0.8c0,0,0,0.8,0,1.7c-0.8,0.8,0,1.7,0,1.7
		c0.8,0.8,0.8,0.8,1.7,0.8v0.8c0,0.8,0,0.8,0,1.7c0,0.7,0.6,0.9,1.3,2c0-0.2,0.3,0,0.3,0.5h-5.1c0,0.8,0,0.8,0,1.7
		c0,0.8,0,1.7,1.7,1.7c0,0,0,0.8,0,1.7c0,0.8,0,0.8,0,1.7c0,1.7,0,3.4-1.7,4.2v0.8v0.8h-2.5l2.5,1.7v4.2h-1.7c0,0.8,0,0.8,0,0.8
		c0,0.8-0.8,0.8-0.8,1.7v0.8l0.8,0.8c0.8,0,0.8,0,0.8,0c0,0.8-0.8,0.8-0.8,0.8l-0.8,0.8l0.8,0.8l-1.7,1.7l0.8,0.8
		c0.8,0.8,1.7,1.7,1.7,2.5c0.8,1.7,0,1.7-0.8,2.5c0,0-0.8,0-0.8,0.8l-1.7,3.4c0.8,0,1.7,0.8,1.7,0.8c0,0.4,0,0.8,0,1.3l0.8-0.4v-1.7
		v-1.7l1.7,1.7h-1.7l1.7,1.7h-1.7l-0.8,1.7l1.7-0.8l-0.8,1.7l-0.8-0.4c0,0.1,0,0.3,0,0.4c0,0.3,0,0.5,0,0.8c0,0.6,0,1.3,0,1.7
		l-1.4,2.8c0.1,0.1,0.2,0.2,0.6,0.6c0.8,0,0,0.8,0,1.7c-0.8,0.8-0.8,1.7-0.8,1.7s0.8,0,1.7,0.8v0.8c0,0.8-0.8,1.7-0.8,2.5
		c0.8,0,0.8,0,0.8,0h0.8l-0.8,0.8c0,0,0,0.8-0.8,0.8c0,0.8-0.8,0-0.8,0l-1.7,1.7l0.8,1.7l-2.5,0.8l3.4,0.8l-4.2,4.2h-0.8v-2.5
		l-1.7,4.2h-4.2l0.8,0.8c0.8,0.8,0.8,0.8,0.8,1.7c0,0.8-0.8,0.8-1.7,1.7l-1.7-2.5l2.5,4.2l-0.8,1.7l1.7,0.8l-1.7,2.5h-1.7l0.8,1.7
		l0.8-0.8v0.8c-0.8,0.8-0.8,1.7-0.8,1.7c-0.8,0.8-2.5,0.8-3.4,0.8c-0.8,0-0.8,0-0.8,0c-0.8,0-1.7,0-1.7,0l0.8,2.5
		c-2.5,1.7-3.4,2.5-4.2,2.5c-0.8,0-0.8-0.8-1.7-3.4l-0.6,0.6l0.6,0.3l-0.8,0.8c0,0.3,0,0.5,0,0.8v0.8h0.8l-2.5,0.8l-2.5,5.9
		l-1.7-3.4l-0.8,1.7h-0.8l1.7,0.8c0,0.8-0.8,0.8-0.8,0.8c-0.8,0-1.7,0-1.7,0.8c0,0-0.1,0.7-0.8,0.8c0,0.3-0.1,0.6-0.1,0.9v0.8h-0.8
		c0-0.8,0-0.8,0-0.8c0.8,0,0.8-0.8,0.8-0.8c0,0,0,0,0.1,0c0.1-0.4,0.2-0.8,0.8-0.8c0-0.8-0.8-0.8-0.8-0.8c-0.8,0-0.8,0-0.8,0
		c-1.7-0.8-2.5-0.8-3.4,0c0,0,0,0-0.8,0h-0.8l1.7-4.2c0,0,0,0-0.8,0c-0.8,0-0.8,0-1.7,0c0,0-0.8,0-0.8-0.8c0-0.8,0-1.7,0-1.7
		c-0.8,0-0.8,0-0.8,0c-0.8,0.8-0.8,0.8-0.8,1.7l2.5,2.5h-5.9v-0.8v-0.8c-0.8,0-0.8,0-0.8,0c-0.8,0.8-0.8,0.8-1.7,1.7
		c-0.8,0.8-0.8,0.8-0.8,0.8l-7.6,2.5l0.8,1.7l-5.1-3.4l-0.8,0.8l0.8,1.7h-0.8c-1.7,0-2.5-0.8-3.4-1.7c-0.8-0.8-0.8-1.7,0-3.4
		c0.8,0,2.5,0.8,3.4,0.8V316c0.8,0,1.7-0.8,2.5-0.8l0.8-0.8l-2.5-1.7l1.7-4.2l-8.4,3.4v0.8h-0.8h-0.8l0.8-1.7v1.7l0.8-1.7v0.8
		l1.4-3.4h-0.6l0.8-1.7v1.1l0.8-2l-9.3,5.9h-0.5l0.5,0.8l-2.8-1.4l-0.3,0.3l1.4,3.6l-2.9-1.2c-0.1,0.1-0.2,0.3-0.5,0.3
		c0,0-0.8,0-1.7,0l-1.7,1.7c0,0-0.8,0.8-2.5,0.8l-1.7-2.5l-0.6-0.6l-1.4-0.6l-2.2,4.5l2.5-1.7l-0.8,2.5c0,0-0.8,0-2.5,0l-2.5-3.4
		l-0.8,4.2l-1.7-2.5v5.1l0.8-0.8c0.8,0,0.8-0.8,1.7-0.8s1.7,0,2.5,0l-0.8,3.4l-2.5-0.8l-1.7,1.7v-1.7l-1.7,1.7v-2.5
		c-0.8,0-0.8,0-1.7,0l-0.8-0.8c-0.8,0-0.8,0-0.8,0v-0.8c0-0.8-0.8-0.8-0.8-0.8h-0.8c-0.8,0-0.8,0.8-1.7,0.8c0,0-0.8-0.4-1.3-0.9
		l0.4,1.8l-3.4-1.7l0.8-2.5l0.8-0.8l0.8-0.8l-0.8-0.8l0.8-0.4v-0.4h-0.8c-0.8,0-0.8,0.8-0.8,0.8s0,0,0,0.8c0,0.8,0,0.8,0,0.8
		s-0.8,0.8-1.7,0.8c0,0-0.8,0-0.8-0.8l-0.8,3.4l-2.5-0.8l1.7,0.8l-2.5,1.7l-0.3-0.8l-2.3,0.8v-0.8v-0.8V319l-0.8,0.3v-6.7l-0.8,0.8
		c-0.8,0-1.7-0.8-1.7-0.8l5.1-5.9c-0.8,0-1.7,0.8-1.7,0.8c-0.8,1.7-2.5,2.5-3.4,4.2c-0.8,0.8-0.8,0.8-1.7,1.7l0.8,0.8l-0.8,1.7
		l0.8-0.8l-0.8,1.7l1.7-0.8h0.8c0,0.8-0.8,0.8-0.8,0.8l-3.4,2.5l-2.5,1.7v-2.5l-1.7,2.5l-0.8-4.2h-0.8v1.7h-0.8v-0.8
		c0-0.8,0-1.7,0-2.5c0-0.4,0.2-0.5,0.5-0.7c0.1,0,0.1-0.1,0.2-0.1l0.2-0.1l-3.4-0.8l2.5-1.7h-1.7h-2.5c0,0,0.6-0.6,1.2-1.2l-0.3-0.2
		l-0.8,0.6l-0.8-0.3v1.1h-0.8c0.2,0.6,0.2,1.1,0.3,1.7h2.2l-1.7,0.8l0.8,0.2v-0.2l0.3,0.3l2.2,0.6l-1,0.7l0.2,0.2
		c-0.8,0-0.8,0.8-1.7,0.8h-0.8v-1.7l-0.3-0.3c0.1,1.4,0,2.7-0.5,3.7c-0.8,0.8-1.7,0.8-2.5,0.8l-1.7,2.4l0,0.1l0.8-0.8l1.7,3.4
		l-1.7-0.8l0.7,2.6l0.2-0.1l-0.2,0.2l0.1,0.3l0.9-0.5v1.7l-0.8-0.8h-0.8h-0.8l1-0.5l-1.8-1.2l0.8-3.4l-0.1,0l-2.4,3.4v0v0.8
		l-1.7-0.8h1.7l-7.6-1.7c0-0.8-0.8-0.8-0.8-0.8c-0.8,0-1.7,0-2.5,0.8c0,0-1.7,0-2.5-0.8c-0.5,0-0.8-0.1-1-0.3l-0.2,0.7l0.4,1.3h-0.8
		h0c0,0,0,0,0,0l-0.8-1.7l-0.8,2.5l-0.6-1.9c-0.1,0.1-0.1,0.1-0.2,0.2c0.1-0.1,0.1-0.2,0.2-0.3l-0.2-0.5l0.5-0.3
		c0.3-0.6,0.3-0.8,0.3-1.4c0,0-0.8-0.8-1.7-0.8c0,0.8,0,0.8,0,1.7c0,0-0.8,0.8-1.7,0.8c-0.8,0-1.7,0.8-2.5,1.7
		c-0.8,0-0.8,0.8-1.7,0.8v-2.5l-4.2-0.8l0.8-0.8l0.8-0.8c0-0.8,0-0.8-0.8-1.7c0-0.8,0-0.8,0-0.8s0,0-0.8,0c-0.8,0-1.7,0-1.7,1.7
		c-0.8,0-0.8-0.8-0.8-0.8c-0.8-0.8-2.5-0.8-3.4-0.8c-1.7,0-3.4,0-5.1,0c1.7-1.7,3.4-2.5,5.1-2.5
		C1208.4,315.1,1208.4,314.3,1208.4,313.4z M1252.2,323.5l-2.5-0.8l0.8-1.7v-0.8v-0.8l2.5,2.5l-1.7-0.8L1252.2,323.5z M1641.7,636.3
		c0,33.7-3.4,62.4-10.1,85.1c-5.9,23.6-16.9,42.1-30.3,56.5c-14.3,14.3-32,25.3-53.1,31.2c-21.1,5.9-47.2,9.3-76.7,9.3
		c-20.2,0-37.1-1.7-51.4-5.1c-13.5-3.4-25.3-8.4-35.4-15.2v135.7h-116.3v-338c0-32.9,4.2-60.7,11-83.5c0.8-2.5,1.7-4.2,2.5-6.7
		c-26.1,0-48.9-16-57.3-40.5l-16-47.2h249.5c32.9,0,60.7,3.4,84.3,9.3c23.6,6.7,42.1,16,57.3,30.3c15.2,13.5,26.1,32,32,54.8
		c6.7,23.6,10.1,53.1,10.1,87.7V636.3z M2032.8,734.1c0,14.3-1.7,26.1-4.2,35.4c-3.4,9.3-7.6,16.9-14.3,22.8
		c-6.7,5.9-15.2,10.1-26.1,12.6c-11,2.5-23.6,3.4-38.8,3.4h-129c-27,0-49.7-2.5-68.3-7.6c-17.7-5.1-32.9-12.6-43.8-22.8
		c-11.8-9.3-19.4-21.1-24.4-35.4c-5.1-14.3-7.6-30.3-7.6-48.1v-15.2c0-39.6,11.8-69.1,36.2-86.8c23.6-17.7,61.5-27,111.3-27
		c24.4,0,43.8,1.7,59,5.9c15.2,3.4,27,8.4,37.1,13.5v-17.7c0-10.1-0.8-18.5-2.5-26.1c-1.7-7.6-5.1-13.5-10.1-18.5
		c-5.1-5.1-12.6-8.4-21.9-11c-9.3-2.5-14.3-3.4-30.3-3.4h-54c-29.5,0-54.8-18.5-64.1-45.5l-14.3-43.8h139.9
		c61.5,0,98.6,10.1,127.3,31.2c28.7,21.1,43,56.5,43,105.4V734.1z M2219.1,807.4h-116.3V358.1c-27.8,0-52.3-17.7-61.5-43.8
		l-15.2-43.8h193V807.4z"/>
	<polygon class="st0" points="1325.6,294.9 1326.4,294.9 1327.2,294.9 1327.2,293.2 	"/>
	<polygon class="st0" points="1341.6,295.7 1343.3,297.4 1344.2,296.8 1344.1,296.6 1344.5,296.6 1345.8,295.7 1342.4,294.9 
		1344.1,293.2 1339.9,294 1340.7,294.9 	"/>
	<polygon class="st0" points="1339.9,299.1 1339.9,299.1 1340.7,299.9 1339.9,296.6 1341.6,297.4 1339.9,294 1339,294.9 1339,295.7 
		1338.2,297.4 1339.9,299.1 	"/>
	<polygon class="st0" points="1329.8,294 1329.8,291.5 1328.9,291.5 1328.1,291.5 1327.2,292.3 1328.1,294 1328.9,293.2 	"/>
	<polygon class="st0" points="1334,299.1 1334.8,299.9 1336.5,302.5 1339.9,299.1 1339.9,299.1 1335.7,299.1 1338.2,297.4 
		1333.1,298.3 	"/>
	<polygon class="st0" points="1330.6,288.1 1331.5,288.1 1330.6,284.8 1329.8,286.4 1328.1,283.9 1328.1,287.3 1329.8,288.1 	"/>
	<polygon class="st0" points="1332.3,280.5 1330.6,281.4 1331.5,283.1 	"/>
	<polygon class="st0" points="1333.1,278.9 1334,278.9 1332.3,278 1332.3,278.9 1332.3,280.5 1333.1,280.5 	"/>
	<polygon class="st0" points="1328.9,293.2 1328.1,294 1328.1,294 1327.2,294.9 1328.9,294.9 	"/>
	<polygon class="st0" points="1332.3,277.2 1332.3,278 1334,278 	"/>
	<polygon class="st0" points="1332.3,289 1333.1,289 1333.1,287.3 	"/>
	<polygon class="st0" points="1334,289 1335.7,289 1335.7,287.3 1333.1,289 	"/>
</g>
</svg>
